<?xml version="1.0" encoding="UTF-8"?>
<svg width="210px" height="200px" viewBox="0 0 210 200" version="1.1" xmlns="http://www.w3.org/2000/svg" xmlns:xlink="http://www.w3.org/1999/xlink">
    <!-- Generator: Sketch 46.2 (44496) - http://www.bohemiancoding.com/sketch -->
    <title>redux-logo</title>
    <desc>Created with Sketch.</desc>
    <defs></defs>
    <g id="Page-1" stroke="none" stroke-width="1" fill="none" fill-rule="evenodd">
        <g id="redux-logo" fill-rule="nonzero" fill="#D4E7E8">
            <path d="M145.6,139.733333 C153.333333,138.933333 159.2,132.266667 158.933333,124.266667 C158.666667,116.266667 152,109.866667 144,109.866667 L143.466667,109.866667 C135.2,110.133333 128.8,117.066667 129.066667,125.333333 C129.333333,129.333333 130.933333,132.8 133.333333,135.2 C124.266667,153.066667 110.4,166.133333 89.6,177.066667 C75.4666667,184.533333 60.8,187.2 46.1333333,185.333333 C34.1333333,183.733333 24.8,178.4 18.9333333,169.6 C10.4,156.533333 9.6,142.4 16.8,128.266667 C21.8666667,118.133333 29.8666667,110.666667 34.9333333,106.933333 C33.8666667,103.466667 32.2666667,97.6 31.4666667,93.3333333 C-7.2,121.333333 -3.2,159.2 8.53333333,177.066667 C17.3333333,190.4 35.2,198.666667 54.9333333,198.666667 C60.2666667,198.666667 65.6,198.133333 70.9333333,196.8 C105.066667,190.133333 130.933333,169.866667 145.6,139.733333 L145.6,139.733333 Z" id="Shape"></path>
            <path d="M192.533333,106.666667 C172.266667,82.9333333 142.4,69.8666667 108.266667,69.8666667 L104,69.8666667 C101.6,65.0666667 96.5333333,61.8666667 90.9333333,61.8666667 L90.4,61.8666667 C82.1333333,62.1333333 75.7333333,69.0666667 76,77.3333333 C76.2666667,85.3333333 82.9333333,91.7333333 90.9333333,91.7333333 L91.4666667,91.7333333 C97.3333333,91.4666667 102.4,87.7333333 104.533333,82.6666667 L109.333333,82.6666667 C129.6,82.6666667 148.8,88.5333333 166.133333,100 C179.466667,108.8 189.066667,120.266667 194.4,134.133333 C198.933333,145.333333 198.666667,156.266667 193.866667,165.6 C186.4,179.733333 173.866667,187.466667 157.333333,187.466667 C146.666667,187.466667 136.533333,184.266667 131.2,181.866667 C128.266667,184.533333 122.933333,188.8 119.2,191.466667 C130.666667,196.8 142.4,199.733333 153.6,199.733333 C179.2,199.733333 198.133333,185.6 205.333333,171.466667 C213.066667,156 212.533333,129.333333 192.533333,106.666667 Z" id="Shape"></path>
            <path d="M57.0666667,144.266667 C57.3333333,152.266667 64,158.666667 72,158.666667 L72.5333333,158.666667 C80.8,158.4 87.2,151.466667 86.9333333,143.2 C86.6666667,135.2 80,128.8 72,128.8 L71.4666667,128.8 C70.9333333,128.8 70.1333333,128.8 69.6,129.066667 C58.6666667,110.933333 54.1333333,91.2 55.7333333,69.8666667 C56.8,53.8666667 62.1333333,40 71.4666667,28.5333333 C79.2,18.6666667 94.1333333,13.8666667 104.266667,13.6 C132.533333,13.0666667 144.533333,48.2666667 145.333333,62.4 C148.8,63.2 154.666667,65.0666667 158.666667,66.4 C155.466667,23.2 128.8,0.8 103.2,0.8 C79.2,0.8 57.0666667,18.1333333 48.2666667,43.7333333 C36,77.8666667 44,110.666667 58.9333333,136.533333 C57.6,138.4 56.8,141.333333 57.0666667,144.266667 L57.0666667,144.266667 Z" id="Shape"></path>
        </g>
    </g>
</svg>