<?xml version="1.0" encoding="UTF-8"?>
<svg width="188px" height="200px" viewBox="0 0 188 200" version="1.1" xmlns="http://www.w3.org/2000/svg" xmlns:xlink="http://www.w3.org/1999/xlink">
    <!-- Generator: Sketch 46.2 (44496) - http://www.bohemiancoding.com/sketch -->
    <title>angular_whiteTransparent</title>
    <desc>Created with Sketch.</desc>
    <defs></defs>
    <g id="Page-1" stroke="none" stroke-width="1" fill="none" fill-rule="evenodd">
        <g id="angular_whiteTransparent" fill-rule="nonzero" fill="#D4E7E8">
            <path d="M94,123.4 L118.7,123.4 L130.4,152.6 L152.1,152.6 L152.2,152.6 L94,22.1 L94,22.2 L94,0 L187.1,33.2 L172.9,156.3 L94,200 L94,123.4 Z M111,105.4 L94,105.4 L94,64.5 L111,105.4 Z" id="Combined-Shape" fill-opacity="0.9"></path>
            <path d="M94,123.4 L94,200 L15.1,156.3 L0.9,33.2 L94,0 L94,22.2 L94,22.1 L35.8,152.6 L35.9,152.6 L57.6,152.6 L69.3,123.4 L94,123.4 Z M77,105.4 L94,64.5 L94,105.4 L77,105.4 Z" id="Combined-Shape"></path>
        </g>
    </g>
</svg>