<?xml version="1.0" encoding="UTF-8"?>
<svg width="225px" height="200px" viewBox="0 0 225 200" version="1.1" xmlns="http://www.w3.org/2000/svg" xmlns:xlink="http://www.w3.org/1999/xlink">
    <!-- Generator: Sketch 46.2 (44496) - http://www.bohemiancoding.com/sketch -->
    <title>React-icon</title>
    <desc>Created with Sketch.</desc>
    <defs></defs>
    <g id="Page-1" stroke="none" stroke-width="1" fill="none" fill-rule="evenodd">
        <g id="React-icon" fill-rule="nonzero" fill="#D8E9EA">
            <path d="M224.851259,100 C224.851259,85.1258581 206.224256,71.0297483 177.665904,62.2883295 C184.256293,33.180778 181.327231,10.0228833 168.421053,2.60869565 C165.446224,0.869565217 161.967963,0.0457665904 158.169336,0.0457665904 L158.169336,10.2517162 C160.2746,10.2517162 161.967963,10.6636156 163.386728,11.4416476 C169.610984,15.0114416 172.311213,28.604119 170.20595,46.0869565 C169.702517,50.389016 168.878719,54.9199085 167.871854,59.5423341 C158.901602,57.3455378 149.107551,55.6521739 138.810069,54.5537757 C132.631579,46.0869565 126.224256,38.3981693 119.771167,31.6704805 C134.691076,17.8032037 148.695652,10.2059497 158.215103,10.2059497 L158.215103,0 C158.215103,0 158.215103,0 158.215103,0 C145.629291,0 129.153318,8.97025172 112.494279,24.5308924 C95.8352403,9.0617849 79.3592677,0.183066362 66.7734554,0.183066362 L66.7734554,10.389016 C76.2471396,10.389016 90.2974828,17.9405034 105.217391,31.7162471 C98.8100686,38.4439359 92.402746,46.0869565 86.3157895,54.5537757 C75.97254,55.6521739 66.1784897,57.3455378 57.208238,59.5881007 C56.1556064,55.0114416 55.3775744,50.5720824 54.8283753,46.3157895 C52.6773455,28.8329519 55.3318078,15.2402746 61.5102975,11.624714 C62.8832952,10.8009153 64.6681922,10.4347826 66.7734554,10.4347826 L66.7734554,0.228832952 C66.7734554,0.228832952 66.7734554,0.228832952 66.7734554,0.228832952 C62.9290618,0.228832952 59.4508009,1.05263158 56.4302059,2.79176201 C43.5697941,10.2059497 40.6864989,33.3180778 47.3226545,62.3340961 C18.8558352,71.1212815 0.320366133,85.1716247 0.320366133,100 C0.320366133,114.874142 18.9473684,128.970252 47.5057208,137.71167 C40.9153318,166.819222 43.8443936,189.977117 56.7505721,197.391304 C59.7254005,199.130435 63.2036613,199.954233 67.0480549,199.954233 C79.6338673,199.954233 96.1098398,190.983982 112.768879,175.423341 C129.427918,190.892449 145.90389,199.771167 158.489703,199.771167 C162.334096,199.771167 165.812357,198.947368 168.832952,197.208238 C181.693364,189.79405 184.576659,166.681922 177.940503,137.665904 C206.315789,128.924485 224.851259,114.828375 224.851259,100 Z M165.263158,69.4736842 C163.569794,75.3775744 161.464531,81.4645309 159.084668,87.5514874 C157.208238,83.8901602 155.240275,80.228833 153.089245,76.5675057 C150.983982,72.9061785 148.741419,69.3363844 146.498856,65.8581236 C152.997712,66.819222 159.267735,68.0091533 165.263158,69.4736842 Z M144.302059,118.215103 C140.732265,124.393593 137.070938,130.251716 133.272311,135.697941 C126.453089,136.292906 119.542334,136.613272 112.585812,136.613272 C105.675057,136.613272 98.7643021,136.292906 91.9908467,135.743707 C88.1922197,130.297483 84.4851259,124.485126 80.9153318,118.352403 C77.4370709,112.356979 74.2791762,106.270023 71.395881,100.1373 C74.2334096,94.0045767 77.4370709,87.8718535 80.8695652,81.8764302 C84.4393593,75.6979405 88.1006865,69.8398169 91.8993135,64.3935927 C98.7185355,63.798627 105.629291,63.4782609 112.585812,63.4782609 C119.496568,63.4782609 126.407323,63.798627 133.180778,64.3478261 C136.979405,69.7940503 140.686499,75.6064073 144.256293,81.7391304 C147.734554,87.7345538 150.892449,93.8215103 153.775744,99.9542334 C150.892449,106.086957 147.734554,112.21968 144.302059,118.215103 Z M159.084668,112.265446 C161.556064,118.398169 163.661327,124.530892 165.400458,130.480549 C159.405034,131.94508 153.089245,133.180778 146.544622,134.141876 C148.787185,130.617849 151.029748,127.002288 153.135011,123.295195 C155.240275,119.633867 157.208238,115.926773 159.084668,112.265446 Z M112.677346,161.098398 C108.421053,156.704805 104.16476,151.80778 99.9542334,146.453089 C104.073227,146.636156 108.283753,146.773455 112.540046,146.773455 C116.842105,146.773455 121.098398,146.681922 125.263158,146.453089 C121.144165,151.80778 116.887872,156.704805 112.677346,161.098398 Z M78.6270023,134.141876 C72.1281465,133.180778 65.8581236,131.990847 59.8627002,130.526316 C61.5560641,124.622426 63.6613272,118.535469 66.0411899,112.448513 C67.9176201,116.10984 69.8855835,119.771167 72.0366133,123.432494 C74.187643,127.093822 76.3844394,130.663616 78.6270023,134.141876 Z M112.448513,38.9016018 C116.704805,43.2951945 120.961098,48.1922197 125.171625,53.5469108 C121.052632,53.3638444 116.842105,53.2265446 112.585812,53.2265446 C108.283753,53.2265446 104.02746,53.3180778 99.8627002,53.5469108 C103.981693,48.1922197 108.237986,43.2951945 112.448513,38.9016018 Z M78.5812357,65.8581236 C76.3386728,69.382151 74.0961098,72.9977117 71.9908467,76.7048055 C69.8855835,80.3661327 67.9176201,84.02746 66.0411899,87.6887872 C63.5697941,81.5560641 61.4645309,75.423341 59.7254005,69.4736842 C65.7208238,68.0549199 72.0366133,66.819222 78.5812357,65.8581236 Z M37.1624714,123.157895 C20.9610984,116.24714 10.4805492,107.185355 10.4805492,100 C10.4805492,92.8146453 20.9610984,83.7070938 37.1624714,76.8421053 C41.0983982,75.1487414 45.4004577,73.6384439 49.8398169,72.2196796 C52.4485126,81.1899314 55.8810069,90.5263158 60.1372998,100.091533 C55.9267735,109.610984 52.5400458,118.901602 49.9771167,127.826087 C45.4462243,126.407323 41.1441648,124.851259 37.1624714,123.157895 Z M61.784897,188.558352 C55.5606407,184.988558 52.8604119,171.395881 54.9656751,153.913043 C55.4691076,149.610984 56.2929062,145.080092 57.2997712,140.457666 C66.2700229,142.654462 76.0640732,144.347826 86.3615561,145.446224 C92.5400458,153.913043 98.9473684,161.601831 105.400458,168.329519 C90.4805492,182.196796 76.4759725,189.79405 66.9565217,189.79405 C64.8970252,189.748284 63.1578947,189.336384 61.784897,188.558352 Z M170.343249,153.684211 C172.494279,171.167048 169.839817,184.759725 163.661327,188.375286 C162.28833,189.199085 160.503432,189.565217 158.398169,189.565217 C148.924485,189.565217 134.874142,182.01373 119.954233,168.237986 C126.361556,161.510297 132.768879,153.867277 138.855835,145.400458 C149.199085,144.302059 158.993135,142.608696 167.963387,140.366133 C169.016018,144.988558 169.839817,149.427918 170.343249,153.684211 Z M187.963387,123.157895 C184.02746,124.851259 179.7254,126.361556 175.286041,127.78032 C172.677346,118.810069 169.244851,109.473684 164.988558,99.9084668 C169.199085,90.389016 172.585812,81.0983982 175.148741,72.173913 C179.679634,73.5926773 183.981693,75.1487414 188.009153,76.8421053 C204.210526,83.7528604 214.691076,92.8146453 214.691076,100 C214.645309,107.185355 204.16476,116.292906 187.963387,123.157895 Z" id="Shape"></path>
            <circle id="Oval" cx="112.540046" cy="100" r="20.9153318"></circle>
        </g>
    </g>
</svg>