<?xml version="1.0" encoding="UTF-8"?>
<svg width="200px" height="200px" viewBox="0 0 200 200" version="1.1" xmlns="http://www.w3.org/2000/svg" xmlns:xlink="http://www.w3.org/1999/xlink">
    <!-- Generator: Sketch 46.2 (44496) - http://www.bohemiancoding.com/sketch -->
    <title>Unofficial_JavaScript_logo_2</title>
    <desc>Created with Sketch.</desc>
    <defs></defs>
    <g id="Page-1" stroke="none" stroke-width="1" fill="none" fill-rule="evenodd">
        <g id="Unofficial_JavaScript_logo_2" fill-rule="nonzero" fill="#D4E7E8">
            <path d="M0,0 L200,0 L200,200 L0,200 L0,0 Z M134.349206,156.250794 L119.07619,165.12381 C124.593651,176.025397 135.869841,184.342857 153.32381,184.342857 C171.174603,184.342857 184.466667,175.073016 184.466667,158.152381 C184.466667,142.457143 175.450794,135.47619 159.48254,128.628571 L154.784127,126.615873 C146.720635,123.12381 143.228571,120.84127 143.228571,115.203175 C143.228571,110.64127 146.71746,107.149206 152.222222,107.149206 C157.619048,107.149206 161.095238,109.425397 164.31746,115.203175 L178.952381,105.806349 C172.761905,94.9174603 164.171429,90.7587302 152.222222,90.7587302 C135.438095,90.7587302 124.698413,101.488889 124.698413,115.584127 C124.698413,130.885714 133.707937,138.12381 147.269841,143.901587 L151.968254,145.91746 C160.539683,149.666667 165.650794,151.949206 165.650794,158.393651 C165.650794,163.771429 160.67619,167.663492 152.888889,167.663492 C143.619048,167.663492 138.377778,162.828571 134.349206,156.250794 Z M67.9587302,157.879365 L52.6603175,167.14127 C57.0920635,176.520635 65.8063492,184.307937 80.8539683,184.307937 C97.5079365,184.307937 108.91746,175.450794 108.91746,155.990476 L108.91746,91.831746 L90.1238095,91.831746 L90.1238095,155.736508 C90.1238095,165.130159 86.2285714,167.546032 80.0539683,167.546032 C73.5968254,167.546032 70.9111111,163.11746 67.9587302,157.879365 Z" id="Combined-Shape"></path>
        </g>
    </g>
</svg>